<svg width="171" height="22" viewBox="0 0 171 22" fill="none" xmlns="http://www.w3.org/2000/svg">
<path fill-rule="evenodd" clip-rule="evenodd" d="M103.929 16.8892L100.334 4.58984H102.495L104.946 13.4729L107.388 4.60685L109.55 4.58984L112.001 13.4729L114.444 4.58984H116.606L113.018 16.8892H110.985L108.465 8.14298L105.962 16.8892H103.929Z" fill="#FAFAFA"/>
<path fill-rule="evenodd" clip-rule="evenodd" d="M129.67 17.1459C129.004 17.1459 128.44 17.0208 127.979 16.7702C127.518 16.5136 127.167 16.1749 126.929 15.7535C126.695 15.3321 126.579 14.868 126.579 14.3615C126.579 13.917 126.652 13.5183 126.801 13.1657C126.948 12.8066 127.177 12.499 127.484 12.2427C127.791 11.9808 128.189 11.7676 128.68 11.6025C129.05 11.483 129.483 11.3746 129.978 11.2774C130.479 11.1807 131.02 11.0926 131.601 11.0132C132.187 10.9274 132.055 10.949 132.693 10.8518C132.699 10.2142 132.566 10.0506 132.275 9.74898C131.985 9.44699 131.495 9.29657 130.806 9.29657C130.391 9.29657 129.99 9.39294 129.601 9.58645C129.214 9.77997 128.944 10.1137 128.79 10.5861L126.911 9.99653C127.139 9.21606 127.572 8.59017 128.21 8.11735C128.854 7.64491 129.719 7.40869 130.806 7.40869C131.627 7.40869 132.347 7.54249 132.968 7.81008C133.594 8.07767 134.058 8.51609 134.36 9.12535C134.525 9.45001 134.624 9.78299 134.659 10.1247C134.693 10.4603 134.71 10.8277 134.71 11.2264V16.8893H132.908C132.908 16.4754 132.908 16.0615 132.908 15.6477C133.047 15.4712 133.128 15.3472 133.207 15.2153C132.859 15.7947 132.304 16.3711 131.746 16.6844C131.193 16.9921 130.502 17.1459 129.67 17.1459ZM130.08 15.5056C130.547 15.5056 130.946 15.4232 131.276 15.2584C131.606 15.0929 131.869 14.8906 132.062 14.6514C132.261 14.4125 132.395 14.1873 132.463 13.9768C132.571 13.7152 132.631 13.4163 132.643 13.0799C132.659 12.7382 132.664 12.7507 132.664 12.5398C132.044 12.6369 132.147 12.6218 131.703 12.6959C131.259 12.7696 130.877 12.8406 130.559 12.909C130.239 12.9718 129.958 13.0432 129.713 13.123C129.473 13.208 129.272 13.3078 129.107 13.4219C128.942 13.5353 128.813 13.6665 128.722 13.8146C128.637 13.9624 128.594 14.1363 128.594 14.3354C128.594 14.5633 128.651 14.7655 128.765 14.942C128.879 15.1129 129.044 15.2493 129.26 15.3517C129.483 15.4545 129.756 15.5056 130.08 15.5056Z" fill="#FAFAFA"/>
<path fill-rule="evenodd" clip-rule="evenodd" d="M137.582 7.66444V5.10229H139.632C139.632 5.96932 139.632 6.825 139.632 7.66444C139.632 8.20189 139.632 7.10167 139.632 7.66444M139.632 9.27905V13.003C139.632 13.3734 139.635 13.6977 139.641 13.9766C139.652 14.2556 139.712 14.4835 139.821 14.6603C140.026 15.0016 140.353 15.1925 140.802 15.2326C141.253 15.2719 141.765 15.2492 142.34 15.1638V16.8891C141.73 17.0033 141.132 17.0517 140.546 17.0346C139.965 17.0233 139.445 16.9179 138.983 16.7183C138.522 16.5134 138.172 16.1918 137.933 15.7534C137.722 15.355 137.611 14.9476 137.599 14.5318C137.588 14.1161 137.582 13.6463 137.582 13.1228C137.582 11.8688 137.582 10.5331 137.582 9.27905M135.908 9.27905V7.66444H142.34V9.27905H135.908Z" fill="#FAFAFA"/>
<path fill-rule="evenodd" clip-rule="evenodd" d="M150.704 16.8892V12.4479C150.704 12.1572 150.684 11.836 150.645 11.4829C150.605 11.1296 150.51 10.7909 150.362 10.4663C150.22 10.1359 150.004 9.86569 149.713 9.65479C149.429 9.44427 149.041 9.33844 148.552 9.33844C148.289 9.33844 148.03 9.38153 147.774 9.46732C147.518 9.55236 147.285 9.70052 147.074 9.91104C146.869 10.1163 146.704 10.4005 146.578 10.7652C146.453 11.1239 146.391 11.5854 146.391 12.1489L146.143 11.0642C146.143 10.278 146.143 9.36717 146.143 8.71142C146.349 8.43891 146.662 8.08288 146.972 7.97176C147.563 7.59079 148.292 7.39992 149.158 7.39992C149.841 7.39992 150.405 7.51369 150.849 7.74159C151.293 7.96912 151.646 8.25977 151.908 8.61277C152.17 8.96578 152.364 9.34147 152.489 9.74021C152.615 10.1389 152.695 10.5177 152.728 10.876C152.768 11.229 152.788 11.5166 152.788 11.7388V16.8892H150.704ZM144.306 16.8892V4.58984H146.143V11.0642L146.391 12.1489V16.8892H144.306Z" fill="#FAFAFA"/>
<path fill-rule="evenodd" clip-rule="evenodd" d="M165.293 16.8892V7.6645H167.113V9.16383C167.26 8.88793 167.165 9.03609 167.343 8.78361C167.537 8.52736 167.768 8.31646 168.035 8.15168C168.263 7.99785 168.514 7.87804 168.787 7.79262C169.065 7.70153 169.35 7.64749 169.641 7.63048C169.931 7.6078 170.213 7.61914 170.487 7.6645V9.58638C170.213 9.50664 169.897 9.48131 169.539 9.50928C169.186 9.53801 168.866 9.63741 168.582 9.80824C168.297 9.96245 168.064 10.1586 167.881 10.3978C167.705 10.6371 167.574 10.9104 167.489 11.2176C167.404 11.5196 167.361 11.8473 167.361 12.1999V16.8892H165.293Z" fill="#FAFAFA"/>
<path fill-rule="evenodd" clip-rule="evenodd" d="M63.7425 16.8892C63.7425 13.4328 63.7425 9.97643 63.7425 6.52005H59.7619V4.58984H69.7814V6.52005C68.4544 6.52005 67.1278 6.52005 65.8008 6.52005C65.8008 9.97643 65.8008 13.4328 65.8008 16.8892C65.1148 16.8892 64.4285 16.8892 63.7425 16.8892Z" fill="#FAFAFA"/>
<path fill-rule="evenodd" clip-rule="evenodd" d="M71.1587 20.9893L72.6758 16.825L68.9461 7.66455H71.0906L73.6664 14.2663L76.1726 7.66455H78.2309L73.0889 20.9893H71.1587Z" fill="#FAFAFA"/>
<path fill-rule="evenodd" clip-rule="evenodd" d="M83.9376 17.1459C83.0381 17.1459 82.1726 16.8511 81.5633 16.424C81.5191 16.116 81.3369 14.6321 81.3071 14.1389C81.3071 13.3478 81.3075 13.106 81.3075 12.1894C81.3075 11.2612 81.3071 10.1383 81.3071 9.35931C81.3059 8.71565 81.3071 8.62116 81.3071 8.37058C81.3419 8.27836 81.456 8.18614 81.6487 8.04894C82.2467 7.62186 82.9837 7.40869 83.8609 7.40869C84.7321 7.40869 85.4865 7.62186 86.1245 8.04894C86.7677 8.47036 87.2659 9.04863 87.6189 9.78299C87.9719 10.5121 88.1488 11.3432 88.1488 12.2771C88.1488 13.1997 87.9745 14.0282 87.628 14.7625C87.2806 15.4973 86.7904 16.0782 86.1585 16.5053C85.5265 16.932 84.7861 17.1459 83.9376 17.1459ZM79.4876 20.9893V7.66457H81.3071V14.1389C81.3774 14.9693 81.4719 15.8159 81.5633 16.424V20.9893H79.4876ZM83.6217 15.3007C84.1572 15.3007 84.5983 15.1669 84.9456 14.8993C85.293 14.6317 85.5492 14.27 85.7144 13.8146C85.8852 13.3531 85.9706 12.8406 85.9706 12.2771C85.9706 11.7192 85.8852 11.212 85.7144 10.7566C85.5435 10.2955 85.279 9.93077 84.9203 9.66356C84.5612 9.3903 84.1058 9.25348 83.5536 9.25348C83.0294 9.25348 82.6023 9.3816 82.2724 9.63748C81.942 9.88806 81.6967 10.2414 81.5372 10.6969C81.3838 11.1466 81.3071 11.6735 81.3071 12.2771C81.3071 12.875 81.3838 13.4015 81.5372 13.8573C81.6967 14.3131 81.9447 14.6688 82.2807 14.9247C82.6224 15.1752 83.0695 15.3007 83.6217 15.3007Z" fill="#FAFAFA"/>
<path fill-rule="evenodd" clip-rule="evenodd" d="M94.2247 17.1459C93.2908 17.1459 92.4718 16.9437 91.765 16.5393C91.059 16.1349 90.5068 15.574 90.1081 14.8566C89.7158 14.1389 89.5189 13.3134 89.5189 12.3795C89.5189 11.3719 89.7127 10.4977 90.0998 9.75729C90.4868 9.01159 91.025 8.43332 91.714 8.02362C92.403 7.61354 93.1997 7.40869 94.1061 7.40869C95.0619 7.40869 95.8737 7.63357 96.5401 8.08334C97.2121 8.52743 97.7098 9.15672 98.0349 9.97083C98.3588 10.7849 98.482 11.7446 98.4019 12.8493H96.3598V12.098C96.3549 11.0952 96.178 10.3635 95.831 9.90242C95.483 9.44132 94.9368 9.21039 94.1907 9.21039C93.3479 9.21039 92.722 9.47269 92.3119 9.99653C91.9018 10.5147 91.697 11.2748 91.697 12.2771C91.697 13.2106 91.9018 13.934 92.3119 14.4465C92.722 14.9594 93.3199 15.2153 94.1061 15.2153C94.6118 15.2153 95.0479 15.1042 95.4119 14.8823C95.7819 14.6544 96.0669 14.3271 96.2668 13.9L98.2998 14.515C97.9461 15.3461 97.3999 15.9924 96.6588 16.4539C95.9248 16.915 95.1129 17.1459 94.2247 17.1459ZM91.7257 12.8493C91.7061 12.5984 91.6947 12.5443 91.697 12.2771C91.6879 11.9989 91.731 11.5541 91.776 11.2948H96.3118C96.3398 11.5726 96.3598 11.8285 96.3598 12.098C96.3598 12.3466 96.3598 12.6006 96.3598 12.8493C94.3918 12.8493 93.6937 12.8493 91.7257 12.8493Z" fill="#FAFAFA"/>
<path fill-rule="evenodd" clip-rule="evenodd" d="M121.174 17.1459C120.241 17.1459 119.421 16.9437 118.715 16.5393C118.009 16.1349 117.456 15.574 117.058 14.8566C116.665 14.1389 116.468 13.3134 116.468 12.3795C116.468 11.3719 116.662 10.4977 117.049 9.75729C117.436 9.01159 117.975 8.43332 118.664 8.02362C119.353 7.61354 120.15 7.40869 121.055 7.40869C122.011 7.40869 122.823 7.63357 123.49 8.08334C124.161 8.52743 124.659 9.15672 124.984 9.97083C125.309 10.7849 125.431 11.7446 125.351 12.8493H123.31V12.098C123.304 11.0952 123.128 10.3635 122.78 9.90242C122.433 9.44132 121.886 9.21039 121.14 9.21039C120.297 9.21039 119.671 9.47269 119.261 9.99653C118.851 10.5147 118.647 11.2748 118.647 12.2771C118.647 13.2106 118.851 13.934 119.261 14.4465C119.671 14.9594 120.269 15.2153 121.055 15.2153C121.562 15.2153 121.997 15.1042 122.362 14.8823C122.732 14.6544 123.016 14.3271 123.216 13.9L125.249 14.515C124.896 15.3461 124.349 15.9924 123.609 16.4539C122.874 16.915 122.063 17.1459 121.174 17.1459ZM118.675 12.8493C118.655 12.5984 118.644 12.5443 118.647 12.2771C118.637 11.9989 118.68 11.5541 118.725 11.2948H123.262C123.289 11.5726 123.31 11.8285 123.31 12.098C123.31 12.3466 123.31 12.6006 123.31 12.8493C121.342 12.8493 120.643 12.8493 118.675 12.8493Z" fill="#FAFAFA"/>
<path fill-rule="evenodd" clip-rule="evenodd" d="M159.21 17.1459C158.276 17.1459 157.457 16.9437 156.75 16.5393C156.044 16.1349 155.492 15.574 155.093 14.8566C154.701 14.1389 154.504 13.3134 154.504 12.3795C154.504 11.3719 154.698 10.4977 155.085 9.75729C155.472 9.01159 156.01 8.43332 156.699 8.02362C157.388 7.61354 158.185 7.40869 159.091 7.40869C160.047 7.40869 160.859 7.63357 161.525 8.08334C162.197 8.52743 162.695 9.15672 163.02 9.97083C163.344 10.7849 163.467 11.7446 163.387 12.8493H161.345V12.098C161.34 11.0952 161.163 10.3635 160.816 9.90242C160.468 9.44132 159.922 9.21039 159.176 9.21039C158.333 9.21039 157.707 9.47269 157.297 9.99653C156.887 10.5147 156.682 11.2748 156.682 12.2771C156.682 13.2106 156.887 13.934 157.297 14.4465C157.707 14.9594 158.305 15.2153 159.091 15.2153C159.597 15.2153 160.033 15.1042 160.397 14.8823C160.767 14.6544 161.052 14.3271 161.252 13.9L163.285 14.515C162.931 15.3461 162.385 15.9924 161.644 16.4539C160.91 16.915 160.098 17.1459 159.21 17.1459ZM156.711 12.8493C156.691 12.5984 156.68 12.5443 156.682 12.2771C156.673 11.9989 156.716 11.5541 156.761 11.2948H161.297C161.325 11.5726 161.345 11.8285 161.345 12.098C161.345 12.3466 161.345 12.6006 161.345 12.8493C159.377 12.8493 158.679 12.8493 156.711 12.8493Z" fill="#FAFAFA"/>
<path fill-rule="evenodd" clip-rule="evenodd" d="M58.2183 19.5567H54.2377V17.6265H63.1525V19.5567C61.8255 19.5567 59.5453 19.5567 58.2183 19.5567Z" fill="#FAFAFA"/>
<path fill-rule="evenodd" clip-rule="evenodd" d="M53.5106 17.4203C52.1526 17.421 50.7946 17.4222 49.4366 17.4233C49.437 17.4275 44.4896 5.27363 42.3496 0.0178223C43.7076 0.0178223 45.066 0.0178223 46.4243 0.0178223C48.0556 4.19987 49.6876 8.38116 51.3192 12.5632C52.907 8.38116 54.3341 4.19987 55.9215 0.0178223C57.2255 0.0178223 58.69 0.0178223 59.994 0.0178223C57.3392 7.36182 53.8552 16.5393 53.5106 17.4203Z" fill="#FAFAFA"/>
<path fill-rule="evenodd" clip-rule="evenodd" d="M24.3931 21.2886C23.2403 21.2886 22.5302 20.756 21.3698 20.1294C20.2095 19.5024 16.8533 16.9788 16.8533 13.8376C16.8533 11.7063 16.3038 9.98287 15.3683 8.60939C14.4397 7.24611 13.1815 6.30161 11.873 5.6349C11.2426 5.31364 10.5861 5.05134 9.93261 4.83402C9.55163 4.70778 9.33053 4.29883 9.4957 3.93298C10.5434 1.61348 12.8765 0 15.5868 0C19.276 0 22.2671 2.99074 22.2671 6.68031C22.2671 7.46948 22.1299 8.22728 21.8786 8.92989C22.9436 8.21254 24.2268 7.79376 25.6071 7.79376C29.2963 7.79376 32.287 10.7845 32.287 14.4737C32.287 18.915 28.3843 21.2886 24.3931 21.2886Z" fill="#8FB2F5" fill-opacity="0.8"/>
<path fill-rule="evenodd" clip-rule="evenodd" d="M0 13.9171C0 17.4381 2.32139 20.3721 5.39679 21.0203C5.8715 21.1938 6.384 21.2887 6.9188 21.2887H17.2978C17.6459 21.2887 17.7974 20.823 17.5313 20.5978C15.7175 19.0637 14.3698 16.9003 14.3698 13.8377C14.3698 12.1547 13.9431 10.929 13.3157 10.0075C12.6807 9.07551 11.7876 8.37894 10.7456 7.84792C9.69411 7.31236 8.55269 6.97144 7.46268 6.72955C7.20605 6.69705 6.94488 6.68042 6.67994 6.68042C2.99074 6.68042 0 9.92023 0 13.9171Z" fill="#8FB2F5" fill-opacity="0.8"/>
</svg>
