<?xml version="1.0" encoding="UTF-8"?>
<!DOCTYPE svg PUBLIC "-//W3C//DTD SVG 1.1//EN" "http://www.w3.org/Graphics/SVG/1.1/DTD/svg11.dtd">
<!-- Creator: CorelDRAW 2019 (64 Bit) -->
<svg xmlns="http://www.w3.org/2000/svg" xml:space="preserve" width="8.5mm" height="5.5mm" version="1.1" style="shape-rendering:geometricPrecision; text-rendering:geometricPrecision; image-rendering:optimizeQuality; fill-rule:evenodd; clip-rule:evenodd"
viewBox="0 0 850 550"
 xmlns:xlink="http://www.w3.org/1999/xlink">
 <defs>
  <style type="text/css">
   <![CDATA[
    .fil1 {fill:#D2D3D5}
    .fil0 {fill:#8FB2F5;fill-opacity:0.800000}
   ]]>
  </style>
 </defs>
 <g id="Camada_x0020_1">
  <metadata id="CorelCorpID_0Corel-Layer"/>
  <g id="_2078807568976">
   <path class="fil0" d="M473.2 443.85c-17.8,0 -28.77,-8.22 -46.68,-17.9 -17.92,-9.68 -69.74,-48.64 -69.74,-97.14 0,-32.91 -8.49,-59.52 -22.93,-80.73 -14.34,-21.05 -33.76,-35.63 -53.97,-45.93 -9.73,-4.96 -19.87,-9.01 -29.96,-12.36 -5.88,-1.95 -9.29,-8.27 -6.74,-13.91 16.17,-35.82 52.2,-60.73 94.04,-60.73 56.97,0 103.15,46.18 103.15,103.15 0,12.18 -2.12,23.88 -6,34.73 16.45,-11.08 36.26,-17.54 57.57,-17.54 56.96,0 103.14,46.18 103.14,103.14 0,68.57 -60.26,105.22 -121.88,105.22z"/>
   <path class="fil0" d="M96.56 330.03c0,54.37 35.84,99.67 83.33,109.68 7.33,2.68 15.24,4.14 23.5,4.14l160.25 0c5.38,0 7.72,-7.19 3.61,-10.67 -28.01,-23.68 -48.82,-57.09 -48.82,-104.37 0,-25.99 -6.59,-44.92 -16.27,-59.14 -9.81,-14.39 -23.6,-25.15 -39.69,-33.35 -16.23,-8.27 -33.85,-13.53 -50.68,-17.27 -3.97,-0.5 -8,-0.75 -12.09,-0.75 -56.96,0 -103.14,50.02 -103.14,111.73z"/>
   <path class="fil1" d="M699.39 444.62l-64.31 0 0 -31.19 144.02 0 0 31.19c-21.44,0 -58.27,0 -79.71,0z"/>
   <path class="fil1" d="M623.33 410.1c-21.94,0.01 -43.88,0.03 -65.82,0.05 0.01,0.07 -79.92,-196.28 -114.49,-281.19 21.94,0 43.88,0 65.83,0 26.35,67.56 52.72,135.11 79.08,202.67 25.65,-67.56 48.71,-135.11 74.35,-202.67 21.07,0 44.73,0 65.79,0 -42.88,118.64 -99.17,266.91 -104.74,281.14z"/>
  </g>
 </g>
</svg>
